<?xml version="1.0" encoding="UTF-8"?>
<svg width="48px" height="42px" viewBox="0 0 48 42" version="1.1" xmlns="http://www.w3.org/2000/svg" xmlns:xlink="http://www.w3.org/1999/xlink">
    <!-- Generator: sketchtool 56.3 (101010) - https://sketch.com -->
    <title>57ECFA20-6D0D-4ADB-95E3-FFA2EA4BDE9F</title>
    <desc>Created with sketchtool.</desc>
    <g id="WIP" stroke="none" stroke-width="1" fill="none" fill-rule="evenodd">
        <g id="DE_modal_v2" transform="translate(-166.000000, -142.000000)">
            <g id="icon_calendar" transform="translate(167.000000, 143.000000)">
                <g id="Group-73">
                    <path d="M0,24.4662662 L0,3.52291417 C0,1.9926324 1.20682171,0.741402006 2.68062016,0.741402006 L42.9007752,0.741402006 C44.3745736,0.741402006 45.5813953,1.9926324 45.5813953,3.52291417 L45.5813953,4.11702357" id="Stroke-4" stroke="#005EA6" stroke-width="1.5" stroke-linecap="round" stroke-linejoin="round"></path>
                    <path d="M0,11.8624321 L45.5813953,11.8624321 L45.5813953,36.4725856 C45.5813953,38.0249886 44.3745736,39.2943063 42.9007752,39.2943063 L13.7551308,39.2943063 L2,39.2943063 C0.8954305,39.2943063 1.3527075e-16,38.3988758 0,37.2943063 L0,22.0048115" id="Stroke-6" stroke="#005EA6" stroke-width="1.5" stroke-linecap="round" stroke-linejoin="round"></path>
                    <path d="M11.0852713,20.2222197 C10.9333333,20.2222197 10.8031008,20.1999776 10.6728682,20.1332514 C10.5426357,20.0865431 10.4102326,19.9975749 10.3234109,19.8885888 C10.1085271,19.6884102 10,19.3992635 10,19.1101167 C10,18.8209699 10.1085271,18.5318231 10.3234109,18.3294204 C10.6294574,18.0202557 11.1069767,17.9090454 11.4955039,18.0869819 C11.627907,18.131466 11.7581395,18.2204343 11.8449612,18.3294204 C12.0620155,18.5318231 12.1705426,18.8209699 12.1705426,19.1101167 C12.1705426,19.3992635 12.0620155,19.6884102 11.8449612,19.8885888 C11.6496124,20.1110094 11.3674419,20.2222197 11.0852713,20.2222197" id="Fill-8" fill="#005EA6"></path>
                    <path d="M11.0852713,26.2222197 C10.9333333,26.2222197 10.8031008,26.1999776 10.6728682,26.1332514 C10.5426357,26.0865431 10.4102326,25.9975749 10.3234109,25.8885888 C10.1085271,25.6884102 10,25.3992635 10,25.1101167 C10,24.8209699 10.1085271,24.5318231 10.3234109,24.3294204 C10.6294574,24.0202557 11.1069767,23.9090454 11.4955039,24.0869819 C11.627907,24.131466 11.7581395,24.2204343 11.8449612,24.3294204 C12.0620155,24.5318231 12.1705426,24.8209699 12.1705426,25.1101167 C12.1705426,25.3992635 12.0620155,25.6884102 11.8449612,25.8885888 C11.6496124,26.1110094 11.3674419,26.2222197 11.0852713,26.2222197" id="Fill-8" fill="#005EA6"></path>
                    <path d="M11.0852713,32.2222197 C10.9333333,32.2222197 10.8031008,32.1999776 10.6728682,32.1332514 C10.5426357,32.0865431 10.4102326,31.9975749 10.3234109,31.8885888 C10.1085271,31.6884102 10,31.3992635 10,31.1101167 C10,30.8209699 10.1085271,30.5318231 10.3234109,30.3294204 C10.6294574,30.0202557 11.1069767,29.9090454 11.4955039,30.0869819 C11.627907,30.131466 11.7581395,30.2204343 11.8449612,30.3294204 C12.0620155,30.5318231 12.1705426,30.8209699 12.1705426,31.1101167 C12.1705426,31.3992635 12.0620155,31.6884102 11.8449612,31.8885888 C11.6496124,32.1110094 11.3674419,32.2222197 11.0852713,32.2222197" id="Fill-8" fill="#005EA6"></path>
                    <path d="M19.0852713,20.2161433 C18.9333333,20.2161433 18.8031008,20.1939012 18.6728682,20.127175 C18.5426357,20.0804667 18.4102326,19.9914985 18.303876,19.8825124 C18.1085271,19.6823338 18,19.393187 18,19.1040403 C18,18.8148935 18.1085271,18.5257467 18.303876,18.323344 C18.7162791,17.902969 19.4325581,17.902969 19.8449612,18.323344 C20.0381395,18.5257467 20.1705426,18.8148935 20.1705426,19.1040403 C20.1705426,19.393187 20.0381395,19.6823338 19.8449612,19.8825124 C19.6496124,20.104933 19.3674419,20.2161433 19.0852713,20.2161433" id="Fill-17" fill="#005EA6"></path>
                    <path d="M19.0852713,26.2161433 C18.7813953,26.2161433 18.5209302,26.104933 18.303876,25.8825124 C18.2170543,25.7935441 18.1302326,25.6600918 18.0651163,25.5244152 C18.0217054,25.393187 18,25.2575105 18,25.1040403 C18,24.7904272 18.1085271,24.5012804 18.303876,24.323344 C18.7162791,23.902969 19.4542636,23.902969 19.8449612,24.323344 C19.9513178,24.4123122 20.0186047,24.5479888 20.0837209,24.6814411 C20.1249612,24.8148935 20.1705426,24.9483458 20.1705426,25.1040403 C20.1705426,25.393187 20.0620155,25.6823338 19.8449612,25.8825124 C19.6496124,26.104933 19.3674419,26.2161433 19.0852713,26.2161433" id="Fill-25" fill="#005EA6"></path>
                    <path d="M26.0852713,32.2221818 C25.9528682,32.2221818 25.8031008,32.1999398 25.6728682,32.1332136 C25.5426357,32.0887295 25.4341085,31.9997612 25.3234109,31.8885509 C25.2170543,31.8018069 25.1497674,31.6661303 25.0868217,31.532678 C25.0434109,31.3992256 25,31.2657732 25,31.1100788 C25,30.9543844 25.0434109,30.820932 25.0868217,30.6897039 C25.1497674,30.5540273 25.2170543,30.420575 25.3234109,30.3316067 C25.4341085,30.2203964 25.5426357,30.1336524 25.6728682,30.0869441 C26.0852713,29.9090076 26.5627907,30.0202179 26.8644961,30.3316067 C26.9513178,30.420575 27.0381395,30.5540273 27.0837209,30.6897039 C27.1466667,30.820932 27.1705426,30.9543844 27.1705426,31.1100788 C27.1705426,31.2657732 27.1466667,31.3992256 27.0837209,31.532678 C27.0381395,31.6661303 26.9513178,31.8018069 26.8644961,31.8885509 C26.6496124,32.1109715 26.3891473,32.2221818 26.0852713,32.2221818" id="Fill-30" fill="#005EA6"></path>
                    <path d="M19.0852713,32.2221818 C18.9528682,32.2221818 18.8031008,32.1999398 18.6728682,32.1332136 C18.5426357,32.0887295 18.4341085,31.9997612 18.3234109,31.8885509 C18.2170543,31.8018069 18.1497674,31.6661303 18.0868217,31.532678 C18.0434109,31.3992256 18,31.2657732 18,31.1100788 C18,30.9543844 18.0434109,30.820932 18.0868217,30.6897039 C18.1497674,30.5540273 18.2170543,30.420575 18.3234109,30.3316067 C18.4341085,30.2203964 18.5426357,30.1336524 18.6728682,30.0869441 C19.0852713,29.9090076 19.5627907,30.0202179 19.8644961,30.3316067 C19.9513178,30.420575 20.0381395,30.5540273 20.0837209,30.6897039 C20.1466667,30.820932 20.1705426,30.9543844 20.1705426,31.1100788 C20.1705426,31.2657732 20.1466667,31.3992256 20.0837209,31.532678 C20.0381395,31.6661303 19.9513178,31.8018069 19.8644961,31.8885509 C19.6496124,32.1109715 19.3891473,32.2221818 19.0852713,32.2221818" id="Fill-30" fill="#005EA6"></path>
                    <path d="M26.0852713,20.2214258 C25.8031008,20.2214258 25.5187597,20.1102155 25.3234109,19.8877949 C25.1302326,19.6876163 25,19.3984695 25,19.1093228 C25,18.820176 25.1302326,18.5310292 25.3234109,18.3286264 C25.4102326,18.2196403 25.5426357,18.1306721 25.6728682,18.086188 C25.9333333,17.9749777 26.2350388,17.9749777 26.4955039,18.086188 C26.627907,18.1306721 26.7581395,18.2196403 26.8644961,18.3286264 C27.0620155,18.5310292 27.1705426,18.820176 27.1705426,19.1093228 C27.1705426,19.3984695 27.0620155,19.6876163 26.8644961,19.8877949 C26.6496124,20.1102155 26.3891473,20.2214258 26.0852713,20.2214258" id="Fill-35" fill="#005EA6"></path>
                    <path d="M26.0852713,26.2222197 C25.8031008,26.2222197 25.5187597,26.1110094 25.3234109,25.8885888 C25.2170543,25.7996205 25.1497674,25.6661682 25.0868217,25.5304916 C25.0434109,25.3992635 25,25.2635869 25,25.1101167 C25,24.9544222 25.0434109,24.8209699 25.0868217,24.6875175 C25.1497674,24.5540652 25.2170543,24.4183886 25.3234109,24.3294204 C25.4341085,24.2204343 25.5426357,24.131466 25.6728682,24.0869819 C26.0852713,23.9090454 26.5627907,24.0202557 26.8644961,24.3294204 C26.9513178,24.4183886 27.0381395,24.5540652 27.0837209,24.6875175 C27.1466667,24.8209699 27.1705426,24.9544222 27.1705426,25.1101167 C27.1705426,25.3992635 27.0620155,25.6884102 26.8644961,25.8885888 C26.6496124,26.1110094 26.3891473,26.2222197 26.0852713,26.2222197" id="Fill-43" fill="#005EA6"></path>
                    <path d="M34.0852713,32.2158652 C33.9333333,32.2158652 33.8031008,32.1936232 33.6728682,32.126897 C33.5426357,32.0824129 33.4102326,31.9934446 33.3234109,31.8822343 C33.2170543,31.7954903 33.1302326,31.6598137 33.0868217,31.5263614 C33.0217054,31.392909 33,31.2594567 33,31.1037622 C33,30.9480678 33.0217054,30.8146155 33.0868217,30.6833873 C33.1302326,30.5477107 33.2170543,30.4142584 33.3234109,30.3252901 C33.7162791,29.902691 34.4542636,29.902691 34.8449612,30.3252901 C34.9513178,30.4142584 35.0381395,30.5477107 35.0837209,30.6833873 C35.1488372,30.8146155 35.1705426,30.9480678 35.1705426,31.1037622 C35.1705426,31.2594567 35.1488372,31.392909 35.0837209,31.5263614 C35.0381395,31.6598137 34.9513178,31.7954903 34.8449612,31.8822343 C34.6496124,32.1046549 34.3674419,32.2158652 34.0852713,32.2158652" id="Fill-48" fill="#005EA6"></path>
                    <path d="M34.0852713,20.2222197 C33.9333333,20.2222197 33.8031008,20.1999776 33.6728682,20.1332514 C33.5426357,20.0865431 33.4102326,19.9975749 33.3234109,19.8885888 C33.1085271,19.6884102 33,19.3992635 33,19.1101167 C33,18.8209699 33.1085271,18.5318231 33.3234109,18.3294204 C33.6294574,18.0202557 34.1069767,17.9090454 34.4955039,18.0869819 C34.627907,18.131466 34.7581395,18.2204343 34.8449612,18.3294204 C35.0620155,18.5318231 35.1705426,18.8209699 35.1705426,19.1101167 C35.1705426,19.3992635 35.0620155,19.6884102 34.8449612,19.8885888 C34.7581395,19.9975749 34.627907,20.0865431 34.4955039,20.1332514 C34.3674419,20.1999776 34.2155039,20.2222197 34.0852713,20.2222197" id="Fill-53" fill="#005EA6"></path>
                    <path d="M34.0852713,26.2161433 C33.8031008,26.2161433 33.5209302,26.104933 33.3234109,25.8825124 C33.1085271,25.6823338 33,25.393187 33,25.1040403 C33,24.9483458 33.0217054,24.8148935 33.0868217,24.6814411 C33.1302326,24.5479888 33.2170543,24.4123122 33.3234109,24.323344 C33.7162791,23.902969 34.4542636,23.902969 34.8449612,24.323344 C34.9513178,24.4123122 35.0381395,24.5479888 35.0837209,24.6814411 C35.1488372,24.8148935 35.1705426,24.9483458 35.1705426,25.1040403 C35.1705426,25.2575105 35.1488372,25.393187 35.0837209,25.5244152 C35.0381395,25.6600918 34.9513178,25.7935441 34.8449612,25.8825124 C34.7364341,25.9914985 34.627907,26.0804667 34.4955039,26.127175 C34.3674419,26.1939012 34.2350388,26.2161433 34.0852713,26.2161433" id="Fill-61" fill="#005EA6"></path>
                    <path d="M8.32041344,0 L8.32041344,6.67261806" id="Stroke-66" stroke="#005EA6" stroke-width="1.5" stroke-linecap="round" stroke-linejoin="round"></path>
                    <path d="M36.5374677,0 L36.5374677,6.67261806" id="Stroke-68" stroke="#005EA6" stroke-width="1.5" stroke-linecap="round" stroke-linejoin="round"></path>
                </g>
            </g>
        </g>
    </g>
</svg>