<?xml version="1.0" encoding="UTF-8"?>
<svg width="46px" height="39px" viewBox="0 0 46 39" version="1.1" xmlns="http://www.w3.org/2000/svg" xmlns:xlink="http://www.w3.org/1999/xlink">
    <!-- Generator: sketchtool 56.3 (101010) - https://sketch.com -->
    <title>31BE8581-2F6B-4CFA-B7E2-B9998CC0D448</title>
    <desc>Created with sketchtool.</desc>
    <g id="WIP" stroke="none" stroke-width="1" fill="none" fill-rule="evenodd" stroke-linecap="round" stroke-linejoin="round">
        <g id="DE_modal_v1" transform="translate(-164.000000, -144.000000)" stroke="#005EA6" stroke-width="1.5">
            <g id="icon_shoppingcart" transform="translate(165.000000, 145.000000)">
                <path d="M4.51416122,1.90363103 C3.43305009,-0.829033115 0,-0.432315113 0,1.90363103 M4.51416122,1.90363103 L13.2163826,22.6444035 C13.8747958,24.1793125 14.2806248,24.7472033 17.3062456,24.7472033 L39.2167764,24.7472033 L43.8518519,4.60493967 M43.8518519,4.44180573 L5.15904139,3.17271838 M36.1132898,31.4099119 C37.5386853,31.4099119 38.5490744,32.6166459 38.5490744,34.1067225 C38.5490744,35.5953458 37.1136766,37 35.6882811,37 C34.2642766,37 32.6837518,35.5953458 32.6837518,34.1067225 M9.35076253,31.7271838 L9.35076253,34.2653585 M9.35286495,34.1082422 C9.20353037,36.2660461 7.46365662,37 5.95547402,37 C4.44765954,37 3.22440087,35.5968654 3.22440087,34.1082422 C3.22440087,32.6181655 4.44765954,31.3374742 5.95547402,31.3374742 M13.1476811,22.2090286 C15.7647459,28.6584255 4.51416122,31.7271838 4.51416122,31.7271838 M5.80392157,31.4099119 L10.1971475,31.4099119 L36.1132898,31.4099119" id="Stroke-7"></path>
            </g>
        </g>
    </g>
</svg>